<?xml version="1.0" encoding="utf-8"?>
<!-- Generator: Adobe Illustrator 24.1.3, SVG Export Plug-In . SVG Version: 6.00 Build 0)  -->
<svg version="1.1" id="Layer_1" xmlns="http://www.w3.org/2000/svg" xmlns:xlink="http://www.w3.org/1999/xlink" x="0px" y="0px"
	 viewBox="0 0 352.5 131.6" style="enable-background:new 0 0 352.5 131.6;" xml:space="preserve">
<style type="text/css">
	.st0{fill:#FF461D;}
</style>
<g id="Layer_1_1_">
	<g>
		<g>
			<path class="st0" d="M99.7,73.4c3.9,5.6,5.9,11.9,5.9,18.9c0,11.8-3.8,20.9-11.5,27.4c-7.7,6.5-18.9,9.7-33.5,9.7H0V0h58.5
				c13.6,0,23.9,3.1,31.1,9.3s10.7,14.2,10.7,24.2c0,12.7-5.8,22-17.3,27.8C90.2,63.8,95.8,67.9,99.7,73.4z M24.5,20.2V54h32.2
				c6.2,0,10.9-1.5,14.3-4.6c3.3-3.1,5-7.4,5-12.8c0-5.1-1.7-9.1-5.1-12s-8.1-4.4-14.2-4.4L24.5,20.2L24.5,20.2z M59.3,109.1
				c6.9,0,12.2-1.6,15.8-4.6s5.4-7.5,5.4-13.2c0-12-7.1-18-21.3-18H24.5v35.8L59.3,109.1L59.3,109.1z"/>
			<path class="st0" d="M175.4,129.4c-1.1-1.9-1.9-5.8-2.6-11.5c-6.3,9.1-16.4,13.6-30.2,13.6c-10.3,0-18.5-2.5-24.6-7.5
				c-6.1-5-9.2-11.9-9.2-20.7c0-17.1,12-26.8,36-29.3l14.2-1.3c4.7-0.6,8.1-1.7,10.2-3.4c2.1-1.6,3.1-4.1,3.1-7.4
				c0-4-1.3-6.9-3.9-8.8s-7-2.8-13.2-2.8c-6.7,0-11.4,1.1-14.4,3.4s-4.6,6.1-5.1,11.5h-22.5c1.3-21.3,15.4-32,42.2-32
				c26.1,0,39.1,9.4,39.1,28.2v50c0,8.2,1.3,14.2,3.8,17.8H175.4z M165.6,109.3c4.5-3.9,6.7-9.6,6.7-17v-8.5
				c-2.2,1.9-5.8,3.2-10.7,3.8l-12.4,1.4c-6.1,0.7-10.4,2.2-13,4.3c-2.6,2.1-3.9,5.2-3.9,9.2s1.4,7.1,4.1,9.4s6.6,3.4,11.7,3.4
				C155.3,115.3,161.1,113.3,165.6,109.3z"/>
			<path class="st0" d="M259.6,34.5v21.1h-5.8c-8.7,0-15.4,2.2-20.1,6.6s-7,10.9-7,19.5v47.6h-22.9V35.6H226v16.7
				c5.2-12.1,14.5-18.2,28-18.2C256,34.2,257.9,34.3,259.6,34.5z"/>
			<path class="st0" d="M304.9,131.6c-14.3,0-25.8-4.5-34.5-13.5c-8.9-8.8-13.3-20.7-13.3-35.6s4.4-26.8,13.3-35.6
				c8.7-9,20.2-13.5,34.5-13.5c14.3,0,25.8,4.4,34.5,13.3s13.1,20.8,13.1,35.8c0,14.8-4.4,26.7-13.1,35.6
				C330.7,127.1,319.2,131.6,304.9,131.6z M322.8,104.8c4.3-5.3,6.5-12.7,6.5-22.3c0-9.6-2.1-17-6.5-22.3
				c-4.3-5.3-10.3-7.9-17.9-7.9s-13.6,2.6-17.9,7.8c-4.3,5.2-6.5,12.7-6.5,22.4c0,9.7,2.1,17.2,6.5,22.4c4.3,5.2,10.3,7.8,17.9,7.8
				S318.5,110.1,322.8,104.8z"/>
		</g>
	</g>
</g>
<g id="Layer_2_1_">
</g>
</svg>
